<?xml version="1.0" encoding="UTF-8" standalone="no"?><!DOCTYPE svg PUBLIC "-//W3C//DTD SVG 1.1//EN" "http://www.w3.org/Graphics/SVG/1.1/DTD/svg11.dtd"><svg width="100%" height="100%" viewBox="0 0 222 222" version="1.1" xmlns="http://www.w3.org/2000/svg" xmlns:xlink="http://www.w3.org/1999/xlink" xml:space="preserve" style="fill-rule:evenodd;clip-rule:evenodd;stroke-linejoin:round;stroke-miterlimit:1.41421;"><g><g><path d="M39.72,143.095l71.28,-98.16l71.28,98.16l-142.56,0Z" style="fill:#fff;"/><path d="M182.28,143.095l-142.56,0l71.28,-98.16l71.28,98.16ZM49.53,138.095l122.94,0l-61.47,-84.651l-61.47,84.651Z" style="fill:#000;"/><path d="M154.373,67.104l-60.464,18.883l-3.496,8.616l60.464,-18.883l3.496,-8.616Z" style="fill:#0ebbff;"/><path d="M144.385,91.723l-32.708,10.215l-3.496,8.616l32.708,-10.214l3.496,-8.617Z" style="fill:#1cff95;"/><path d="M139.391,104.033l-60.464,18.882l-3.496,8.617l60.464,-18.883l3.496,-8.616Z" style="fill:#02c460;"/><path d="M125.893,86.748l-36.978,11.548l-3.496,8.617l36.978,-11.548l3.496,-8.617Z" style="fill:#3effff;"/><path d="M111,45.415l9.084,12.273l-23.735,7.787l14.651,-20.06Z" style="fill:#000;"/></g><g><path d="M55.192,155.752c0,-0.752 0.672,-1.344 1.824,-1.344c1.024,0 2.032,0.4 3.04,1.152l1.056,-1.488c-1.136,-0.912 -2.432,-1.408 -4.064,-1.408c-2.224,0 -3.824,1.312 -3.824,3.264c0,2.08 1.344,2.784 3.728,3.36c2.08,0.48 2.528,0.912 2.528,1.728c0,0.864 -0.768,1.424 -1.984,1.424c-1.392,0 -2.464,-0.528 -3.536,-1.456l-1.184,1.408c1.344,1.2 2.96,1.792 4.672,1.792c2.352,0 4,-1.248 4,-3.36c0,-1.872 -1.232,-2.72 -3.6,-3.296c-2.144,-0.512 -2.656,-0.896 -2.656,-1.776Z" style="fill:#000;fill-rule:nonzero;"/><path d="M68.664,157.64l4.656,-4.816l-2.416,0l-5.328,5.632l0,-5.632l-1.968,0l0,11.2l1.968,0l0,-3.248l1.744,-1.792l3.824,5.04l2.384,0l-4.864,-6.384Z" style="fill:#000;fill-rule:nonzero;"/><path d="M80.12,159.56l4.448,-6.736l-2.256,0l-3.168,4.96l-3.136,-4.96l-2.32,0l4.448,6.784l0,4.416l1.984,0l0,-4.464Z" style="fill:#000;fill-rule:nonzero;"/><path d="M95.64,152.824l-5.024,0l0,11.2l5.184,0c2.496,0 4.144,-1.072 4.144,-3.088c0,-1.536 -0.912,-2.288 -2.224,-2.736c0.832,-0.432 1.6,-1.136 1.6,-2.512c0,-1.76 -1.424,-2.864 -3.68,-2.864ZM95.24,157.544l-2.688,0l0,-2.976l2.832,0c1.264,0 1.968,0.528 1.968,1.44c0,1.04 -0.848,1.536 -2.112,1.536ZM95.816,162.28l-3.264,0l0,-3.072l3.12,0c1.552,0 2.304,0.56 2.304,1.52c0,1.024 -0.816,1.552 -2.16,1.552Z" style="fill:#000;fill-rule:nonzero;"/><path d="M102.648,164.024l7.856,0l0,-1.792l-5.888,0l0,-9.408l-1.968,0l0,11.2Z" style="fill:#000;fill-rule:nonzero;"/><path d="M118.824,152.744l-1.824,0l-4.928,11.28l2.016,0l1.152,-2.704l5.296,0l1.136,2.704l2.08,0l-4.928,-11.28ZM119.816,159.576l-3.856,0l1.92,-4.48l1.936,4.48Z" style="fill:#000;fill-rule:nonzero;"/><path d="M132.2,154.568l-6.608,8l0,1.456l9.168,0l0,-1.744l-6.608,0l6.608,-8l0,-1.456l-8.96,0l0,1.744l6.4,0Z" style="fill:#000;fill-rule:nonzero;"/><path d="M146.008,152.824l-8.304,0l0,11.2l8.384,0l0,-1.76l-6.416,0l0,-3.008l5.616,0l0,-1.76l-5.616,0l0,-2.912l6.336,0l0,-1.76Z" style="fill:#000;fill-rule:nonzero;"/><path d="M158.408,164.024l-3.024,-4.24c1.568,-0.432 2.672,-1.552 2.672,-3.408c0,-2.192 -1.584,-3.552 -4.16,-3.552l-4.992,0l0,11.2l1.968,0l0,-3.904l2.464,0l2.752,3.904l2.32,0ZM156.056,156.488c0,1.152 -0.896,1.888 -2.304,1.888l-2.88,0l0,-3.76l2.864,0c1.456,0 2.32,0.64 2.32,1.872Z" style="fill:#000;fill-rule:nonzero;"/><path d="M162.456,155.752c0,-0.752 0.672,-1.344 1.824,-1.344c1.024,0 2.032,0.4 3.04,1.152l1.056,-1.488c-1.136,-0.912 -2.432,-1.408 -4.064,-1.408c-2.224,0 -3.824,1.312 -3.824,3.264c0,2.08 1.344,2.784 3.728,3.36c2.08,0.48 2.528,0.912 2.528,1.728c0,0.864 -0.768,1.424 -1.984,1.424c-1.392,0 -2.464,-0.528 -3.536,-1.456l-1.184,1.408c1.344,1.2 2.96,1.792 4.672,1.792c2.352,0 4,-1.248 4,-3.36c0,-1.872 -1.232,-2.72 -3.6,-3.296c-2.144,-0.512 -2.656,-0.896 -2.656,-1.776Z" style="fill:#000;fill-rule:nonzero;"/></g><g><path d="M59.031,174.63c0,0.18 -0.034,0.346 -0.102,0.498c-0.068,0.152 -0.162,0.285 -0.282,0.399c-0.12,0.114 -0.262,0.203 -0.426,0.267c-0.164,0.064 -0.342,0.096 -0.534,0.096c-0.252,0 -0.479,-0.036 -0.681,-0.108c-0.202,-0.072 -0.399,-0.172 -0.591,-0.3l0.234,-0.42c0.168,0.12 0.344,0.215 0.528,0.285c0.184,0.07 0.362,0.105 0.534,0.105c0.14,0 0.262,-0.021 0.366,-0.063c0.104,-0.042 0.19,-0.099 0.258,-0.171c0.068,-0.072 0.119,-0.154 0.153,-0.246c0.034,-0.092 0.051,-0.188 0.051,-0.288c0,-0.096 -0.012,-0.184 -0.036,-0.264c-0.024,-0.08 -0.067,-0.156 -0.129,-0.228c-0.062,-0.072 -0.15,-0.143 -0.264,-0.213c-0.114,-0.07 -0.261,-0.145 -0.441,-0.225c-0.192,-0.084 -0.354,-0.169 -0.486,-0.255c-0.132,-0.086 -0.239,-0.178 -0.321,-0.276c-0.082,-0.098 -0.142,-0.202 -0.18,-0.312c-0.038,-0.11 -0.057,-0.231 -0.057,-0.363c0,-0.16 0.032,-0.312 0.096,-0.456c0.064,-0.144 0.155,-0.271 0.273,-0.381c0.118,-0.11 0.26,-0.198 0.426,-0.264c0.166,-0.066 0.349,-0.099 0.549,-0.099c0.188,0 0.366,0.028 0.534,0.084c0.168,0.056 0.316,0.128 0.444,0.216l-0.216,0.408c-0.108,-0.08 -0.231,-0.145 -0.369,-0.195c-0.138,-0.05 -0.279,-0.075 -0.423,-0.075c-0.136,0 -0.257,0.02 -0.363,0.06c-0.106,0.04 -0.193,0.093 -0.261,0.159c-0.068,0.066 -0.12,0.144 -0.156,0.234c-0.036,0.09 -0.054,0.185 -0.054,0.285c0,0.152 0.057,0.292 0.171,0.42c0.114,0.128 0.307,0.254 0.579,0.378c0.228,0.104 0.418,0.203 0.57,0.297c0.152,0.094 0.273,0.191 0.363,0.291c0.09,0.1 0.153,0.208 0.189,0.324c0.036,0.116 0.054,0.248 0.054,0.396Z" style="fill:#666;fill-rule:nonzero;"/><path d="M62.523,175.818l-1.986,-2.16l0,2.16l-0.48,0l0,-4.398l0.48,0l0,2.046l1.914,-2.046l0.606,0l-2.04,2.136l2.136,2.262l-0.63,0Z" style="fill:#666;fill-rule:nonzero;"/><path d="M65.613,173.868l0,1.95l-0.48,0l0,-1.956l-1.542,-2.442l0.54,0l1.26,2.04l1.242,-2.04l0.528,0l-1.548,2.448Z" style="fill:#666;fill-rule:nonzero;"/><path d="M67.785,175.614c0,0.072 -0.013,0.148 -0.039,0.228c-0.026,0.08 -0.064,0.161 -0.114,0.243c-0.05,0.082 -0.114,0.162 -0.192,0.24c-0.078,0.078 -0.171,0.149 -0.279,0.213l-0.066,-0.096c0.112,-0.096 0.198,-0.197 0.258,-0.303c0.06,-0.106 0.102,-0.203 0.126,-0.291c-0.096,-0.008 -0.172,-0.041 -0.228,-0.099c-0.056,-0.058 -0.084,-0.127 -0.084,-0.207c0,-0.08 0.029,-0.149 0.087,-0.207c0.058,-0.058 0.127,-0.087 0.207,-0.087c0.104,0 0.184,0.036 0.24,0.108c0.056,0.072 0.084,0.158 0.084,0.258Z" style="fill:#666;fill-rule:nonzero;"/><path d="M72.171,171.852l0,3.966l-0.48,0l0,-3.966l-1.47,0l0,-0.432l3.414,0l0,0.432l-1.464,0Z" style="fill:#666;fill-rule:nonzero;"/><path d="M76.761,172.74c0,-0.128 -0.024,-0.248 -0.072,-0.36c-0.048,-0.112 -0.118,-0.209 -0.21,-0.291c-0.092,-0.082 -0.207,-0.147 -0.345,-0.195c-0.138,-0.048 -0.297,-0.072 -0.477,-0.072c-0.104,0 -0.211,0.003 -0.321,0.009c-0.11,0.006 -0.205,0.019 -0.285,0.039l0,1.788c0.072,0.008 0.158,0.015 0.258,0.021c0.1,0.006 0.192,0.009 0.276,0.009c0.412,0 0.711,-0.086 0.897,-0.258c0.186,-0.172 0.279,-0.402 0.279,-0.69ZM77.013,175.818l-1.17,-1.734c-0.048,0.004 -0.096,0.007 -0.144,0.009c-0.048,0.002 -0.098,0.003 -0.15,0.003c-0.072,0 -0.155,-0.001 -0.249,-0.003c-0.094,-0.002 -0.177,-0.005 -0.249,-0.009l0,1.734l-0.48,0l0,-4.356c0.164,-0.02 0.328,-0.037 0.492,-0.051c0.164,-0.014 0.338,-0.021 0.522,-0.021c0.284,0 0.532,0.033 0.744,0.099c0.212,0.066 0.388,0.158 0.528,0.276c0.14,0.118 0.245,0.258 0.315,0.42c0.07,0.162 0.105,0.337 0.105,0.525c0,0.308 -0.082,0.572 -0.246,0.792c-0.164,0.22 -0.402,0.38 -0.714,0.48l1.278,1.836l-0.582,0Z" style="fill:#666;fill-rule:nonzero;"/><path d="M79.983,172.308l-0.81,1.89l1.62,0l-0.81,-1.89ZM81.489,175.818l-0.522,-1.218l-1.968,0l-0.522,1.218l-0.498,0l1.974,-4.476l0.078,0l1.974,4.476l-0.516,0Z" style="fill:#666;fill-rule:nonzero;"/><rect x="82.845" y="171.42" width="0.48" height="4.398" style="fill:#666;fill-rule:nonzero;"/><path d="M84.615,175.818l0,-4.398l0.48,0l0,3.966l2.094,0l0,0.432l-2.574,0Z" style="fill:#666;fill-rule:nonzero;"/><path d="M91.437,175.146c-0.176,-0.16 -0.337,-0.316 -0.483,-0.468c-0.146,-0.152 -0.275,-0.3 -0.387,-0.444c-0.164,0.064 -0.298,0.155 -0.402,0.273c-0.104,0.118 -0.156,0.253 -0.156,0.405c0,0.176 0.06,0.315 0.18,0.417c0.12,0.102 0.276,0.153 0.468,0.153c0.14,0 0.274,-0.03 0.402,-0.09c0.128,-0.06 0.254,-0.142 0.378,-0.246ZM91.449,173.118c0,-0.12 -0.041,-0.224 -0.123,-0.312c-0.082,-0.088 -0.183,-0.132 -0.303,-0.132c-0.06,0 -0.118,0.014 -0.174,0.042c-0.056,0.028 -0.105,0.066 -0.147,0.114c-0.042,0.048 -0.076,0.104 -0.102,0.168c-0.026,0.064 -0.039,0.134 -0.039,0.21c0,0.164 0.074,0.36 0.222,0.588c0.248,-0.104 0.421,-0.215 0.519,-0.333c0.098,-0.118 0.147,-0.233 0.147,-0.345ZM92.649,174.366c-0.104,0.132 -0.206,0.26 -0.306,0.384c-0.1,0.124 -0.202,0.242 -0.306,0.354c0.092,0.08 0.187,0.161 0.285,0.243c0.098,0.082 0.199,0.165 0.303,0.249l-0.276,0.318c-0.108,-0.084 -0.213,-0.168 -0.315,-0.252c-0.102,-0.084 -0.203,-0.168 -0.303,-0.252c-0.164,0.14 -0.335,0.253 -0.513,0.339c-0.178,0.086 -0.373,0.129 -0.585,0.129c-0.152,0 -0.294,-0.021 -0.426,-0.063c-0.132,-0.042 -0.247,-0.104 -0.345,-0.186c-0.098,-0.082 -0.175,-0.183 -0.231,-0.303c-0.056,-0.12 -0.084,-0.26 -0.084,-0.42c0,-0.224 0.074,-0.416 0.222,-0.576c0.148,-0.16 0.342,-0.296 0.582,-0.408c-0.076,-0.124 -0.134,-0.244 -0.174,-0.36c-0.04,-0.116 -0.06,-0.226 -0.06,-0.33c0,-0.132 0.027,-0.255 0.081,-0.369c0.054,-0.114 0.124,-0.213 0.21,-0.297c0.086,-0.084 0.183,-0.149 0.291,-0.195c0.108,-0.046 0.216,-0.069 0.324,-0.069c0.14,0 0.262,0.023 0.366,0.069c0.104,0.046 0.191,0.106 0.261,0.18c0.07,0.074 0.123,0.157 0.159,0.249c0.036,0.092 0.054,0.182 0.054,0.27c0,0.088 -0.013,0.178 -0.039,0.27c-0.026,0.092 -0.072,0.183 -0.138,0.273c-0.066,0.09 -0.154,0.176 -0.264,0.258c-0.11,0.082 -0.249,0.157 -0.417,0.225c0.192,0.236 0.438,0.486 0.738,0.75c0.104,-0.108 0.204,-0.223 0.3,-0.345c0.096,-0.122 0.19,-0.247 0.282,-0.375l0.324,0.24Z" style="fill:#666;fill-rule:nonzero;"/><path d="M98.583,174.24c0,0.256 -0.04,0.486 -0.12,0.69c-0.08,0.204 -0.194,0.377 -0.342,0.519c-0.148,0.142 -0.323,0.251 -0.525,0.327c-0.202,0.076 -0.427,0.114 -0.675,0.114c-0.252,0 -0.48,-0.036 -0.684,-0.108c-0.204,-0.072 -0.377,-0.179 -0.519,-0.321c-0.142,-0.142 -0.252,-0.315 -0.33,-0.519c-0.078,-0.204 -0.117,-0.438 -0.117,-0.702l0,-2.82l0.48,0l0,2.784c0,0.22 0.029,0.409 0.087,0.567c0.058,0.158 0.138,0.288 0.24,0.39c0.102,0.102 0.225,0.177 0.369,0.225c0.144,0.048 0.302,0.072 0.474,0.072c0.172,0 0.33,-0.024 0.474,-0.072c0.144,-0.048 0.269,-0.123 0.375,-0.225c0.106,-0.102 0.188,-0.232 0.246,-0.39c0.058,-0.158 0.087,-0.347 0.087,-0.567l0,-2.784l0.48,0l0,2.82Z" style="fill:#666;fill-rule:nonzero;"/><path d="M99.789,175.818l0,-4.398l0.48,0l0,3.966l2.094,0l0,0.432l-2.574,0Z" style="fill:#666;fill-rule:nonzero;"/><path d="M104.211,171.852l0,3.966l-0.48,0l0,-3.966l-1.47,0l0,-0.432l3.414,0l0,0.432l-1.464,0Z" style="fill:#666;fill-rule:nonzero;"/><path d="M108.801,172.74c0,-0.128 -0.024,-0.248 -0.072,-0.36c-0.048,-0.112 -0.118,-0.209 -0.21,-0.291c-0.092,-0.082 -0.207,-0.147 -0.345,-0.195c-0.138,-0.048 -0.297,-0.072 -0.477,-0.072c-0.104,0 -0.211,0.003 -0.321,0.009c-0.11,0.006 -0.205,0.019 -0.285,0.039l0,1.788c0.072,0.008 0.158,0.015 0.258,0.021c0.1,0.006 0.192,0.009 0.276,0.009c0.412,0 0.711,-0.086 0.897,-0.258c0.186,-0.172 0.279,-0.402 0.279,-0.69ZM109.053,175.818l-1.17,-1.734c-0.048,0.004 -0.096,0.007 -0.144,0.009c-0.048,0.002 -0.098,0.003 -0.15,0.003c-0.072,0 -0.155,-0.001 -0.249,-0.003c-0.094,-0.002 -0.177,-0.005 -0.249,-0.009l0,1.734l-0.48,0l0,-4.356c0.164,-0.02 0.328,-0.037 0.492,-0.051c0.164,-0.014 0.338,-0.021 0.522,-0.021c0.284,0 0.532,0.033 0.744,0.099c0.212,0.066 0.388,0.158 0.528,0.276c0.14,0.118 0.245,0.258 0.315,0.42c0.07,0.162 0.105,0.337 0.105,0.525c0,0.308 -0.082,0.572 -0.246,0.792c-0.164,0.22 -0.402,0.38 -0.714,0.48l1.278,1.836l-0.582,0Z" style="fill:#666;fill-rule:nonzero;"/><path d="M112.023,172.308l-0.81,1.89l1.62,0l-0.81,-1.89ZM113.529,175.818l-0.522,-1.218l-1.968,0l-0.522,1.218l-0.498,0l1.974,-4.476l0.078,0l1.974,4.476l-0.516,0Z" style="fill:#666;fill-rule:nonzero;"/><path d="M118.701,172.74c0,-0.128 -0.024,-0.248 -0.072,-0.36c-0.048,-0.112 -0.118,-0.209 -0.21,-0.291c-0.092,-0.082 -0.207,-0.147 -0.345,-0.195c-0.138,-0.048 -0.297,-0.072 -0.477,-0.072c-0.104,0 -0.211,0.003 -0.321,0.009c-0.11,0.006 -0.205,0.019 -0.285,0.039l0,1.788c0.072,0.008 0.158,0.015 0.258,0.021c0.1,0.006 0.192,0.009 0.276,0.009c0.412,0 0.711,-0.086 0.897,-0.258c0.186,-0.172 0.279,-0.402 0.279,-0.69ZM118.953,175.818l-1.17,-1.734c-0.048,0.004 -0.096,0.007 -0.144,0.009c-0.048,0.002 -0.098,0.003 -0.15,0.003c-0.072,0 -0.155,-0.001 -0.249,-0.003c-0.094,-0.002 -0.177,-0.005 -0.249,-0.009l0,1.734l-0.48,0l0,-4.356c0.164,-0.02 0.328,-0.037 0.492,-0.051c0.164,-0.014 0.338,-0.021 0.522,-0.021c0.284,0 0.532,0.033 0.744,0.099c0.212,0.066 0.388,0.158 0.528,0.276c0.14,0.118 0.245,0.258 0.315,0.42c0.07,0.162 0.105,0.337 0.105,0.525c0,0.308 -0.082,0.572 -0.246,0.792c-0.164,0.22 -0.402,0.38 -0.714,0.48l1.278,1.836l-0.582,0Z" style="fill:#666;fill-rule:nonzero;"/><path d="M123.627,174.24c0,0.256 -0.04,0.486 -0.12,0.69c-0.08,0.204 -0.194,0.377 -0.342,0.519c-0.148,0.142 -0.323,0.251 -0.525,0.327c-0.202,0.076 -0.427,0.114 -0.675,0.114c-0.252,0 -0.48,-0.036 -0.684,-0.108c-0.204,-0.072 -0.377,-0.179 -0.519,-0.321c-0.142,-0.142 -0.252,-0.315 -0.33,-0.519c-0.078,-0.204 -0.117,-0.438 -0.117,-0.702l0,-2.82l0.48,0l0,2.784c0,0.22 0.029,0.409 0.087,0.567c0.058,0.158 0.138,0.288 0.24,0.39c0.102,0.102 0.225,0.177 0.369,0.225c0.144,0.048 0.302,0.072 0.474,0.072c0.172,0 0.33,-0.024 0.474,-0.072c0.144,-0.048 0.269,-0.123 0.375,-0.225c0.106,-0.102 0.188,-0.232 0.246,-0.39c0.058,-0.158 0.087,-0.347 0.087,-0.567l0,-2.784l0.48,0l0,2.82Z" style="fill:#666;fill-rule:nonzero;"/><path d="M128.169,175.902l-2.856,-3.42l0,3.336l-0.48,0l0,-4.458l0.096,-0.024l2.82,3.366l0,-3.282l0.48,0l0,4.464l-0.06,0.018Z" style="fill:#666;fill-rule:nonzero;"/><path d="M132.825,175.902l-2.856,-3.42l0,3.336l-0.48,0l0,-4.458l0.096,-0.024l2.82,3.366l0,-3.282l0.48,0l0,4.464l-0.06,0.018Z" style="fill:#666;fill-rule:nonzero;"/><rect x="134.175" y="171.42" width="0.48" height="4.398" style="fill:#666;fill-rule:nonzero;"/><path d="M139.281,175.902l-2.856,-3.42l0,3.336l-0.48,0l0,-4.458l0.096,-0.024l2.82,3.366l0,-3.282l0.48,0l0,4.464l-0.06,0.018Z" style="fill:#666;fill-rule:nonzero;"/><path d="M144.411,173.64l0,1.734c-0.224,0.168 -0.466,0.296 -0.726,0.384c-0.26,0.088 -0.554,0.132 -0.882,0.132c-0.304,0 -0.598,-0.054 -0.882,-0.162c-0.284,-0.108 -0.535,-0.261 -0.753,-0.459c-0.218,-0.198 -0.392,-0.436 -0.522,-0.714c-0.13,-0.278 -0.195,-0.589 -0.195,-0.933c0,-0.344 0.067,-0.656 0.201,-0.936c0.134,-0.28 0.309,-0.519 0.525,-0.717c0.216,-0.198 0.461,-0.351 0.735,-0.459c0.274,-0.108 0.553,-0.162 0.837,-0.162c0.18,0 0.346,0.013 0.498,0.039c0.152,0.026 0.293,0.062 0.423,0.108c0.13,0.046 0.254,0.102 0.372,0.168c0.118,0.066 0.235,0.139 0.351,0.219l-0.252,0.378c-0.204,-0.148 -0.426,-0.265 -0.666,-0.351c-0.24,-0.086 -0.48,-0.129 -0.72,-0.129c-0.28,0 -0.531,0.05 -0.753,0.15c-0.222,0.1 -0.409,0.235 -0.561,0.405c-0.152,0.17 -0.268,0.366 -0.348,0.588c-0.08,0.222 -0.12,0.455 -0.12,0.699c0,0.26 0.048,0.502 0.144,0.726c0.096,0.224 0.226,0.419 0.39,0.585c0.164,0.166 0.358,0.296 0.582,0.39c0.224,0.094 0.464,0.141 0.72,0.141c0.216,0 0.413,-0.024 0.591,-0.072c0.178,-0.048 0.355,-0.124 0.531,-0.228l0,-1.074l-1.164,0l0,-0.45l1.644,0Z" style="fill:#666;fill-rule:nonzero;"/><path d="M148.821,171.852l0,3.966l-0.48,0l0,-3.966l-1.47,0l0,-0.432l3.414,0l0,0.432l-1.464,0Z" style="fill:#666;fill-rule:nonzero;"/><path d="M151.215,175.818l0,-4.398l2.574,0l0,0.432l-2.094,0l0,1.518l1.884,0l0,0.432l-1.884,0l0,1.584l2.094,0l0,0.432l-2.574,0Z" style="fill:#666;fill-rule:nonzero;"/><path d="M156.513,172.308l-0.81,1.89l1.62,0l-0.81,-1.89ZM158.019,175.818l-0.522,-1.218l-1.968,0l-0.522,1.218l-0.498,0l1.974,-4.476l0.078,0l1.974,4.476l-0.516,0Z" style="fill:#666;fill-rule:nonzero;"/><path d="M163.089,175.818l-0.066,-3.108l-1.56,2.658l-0.066,0l-1.572,-2.664l-0.054,3.114l-0.486,0l0.168,-4.47l0.09,-0.012l1.908,3.312l1.86,-3.312l0.096,0.012l0.168,4.47l-0.486,0Z" style="fill:#666;fill-rule:nonzero;"/></g></g></svg>